PathFileType	4	(X/Y/Z)	./resultDataOpenSim/trcMotMarkerGrf/sub09/qtm-05-06.trc
DataRate	CameraRate	NumFrames	NumMarkers	Units	OrigDataRate	OrigDataStartFrame	OrigNumFrames
250.000000	250.000000	5	24	m	250.000000	191	509
Frame#	Time	L.Toe.Tip			R.Toe.Tip			L.Ankle.Lat			R.Ankle.Lat			L.Ankle.Med			R.Ankle.Med			L.Heel			R.Heel			L.Knee.Lat			R.Knee.Lat			L.Knee.Med			R.Knee.Med			L.Thigh.Upper			R.Thigh.Upper			L.ASIS			R.ASIS			V.Sacral			L.Acromium			R.Acromium			C7			L.Elbow			R.Elbow			L.Wrist.Lat			R.Wrist.Lat
		X1	Y1	Z1	X2	Y2	Z2	X3	Y3	Z3	X4	Y4	Z4	X5	Y5	Z5	X6	Y6	Z6	X7	Y7	Z7	X8	Y8	Z8	X9	Y9	Z9	X10	Y10	Z10	X11	Y11	Z11	X12	Y12	Z12	X13	Y13	Z13	X14	Y14	Z14	X15	Y15	Z15	X16	Y16	Z16	X17	Y17	Z17	X18	Y18	Z18	X19	Y19	Z19	X20	Y20	Z20	X21	Y21	Z21	X22	Y22	Z22	X23	Y23	Z23	X24	Y24	Z24

191	0.76	0.14352488	-0.058724183	0.013710419	-0.59633595	0.059220216	0.10506408	-0.002238558	-0.02734891	-0.034890578	-0.65115196	0.19671215	0.1391323	0.012330162	-0.0089294606	0.061569455	-0.59914061	0.19080765	0.055834137	-0.076493145	-0.062000471	0.0058255095	-0.69727215	0.23680284	0.077318342	0.047439705	0.38085352	-0.090811639	-0.24295464	0.35806529	0.2172012	0.043889726	0.38564372	0.03437492	-0.22952457	0.33032757	0.08914329	-0.14541111	0.75889435	-0.14313519	-0.1979773	0.74382937	0.22853915	-0.081688602	0.84759501	-0.074363158	-0.091232377	0.82947621	0.16767704	-0.25859117	0.89103777	0.047164221	-0.13657694	1.2842375	-0.13220665	-0.14651649	1.3052878	0.20019362	-0.20668383	1.3443749	0.033466072	-0.28992098	0.95223356	-0.17145468	-0.26968023	0.95580392	0.28974728	-0.20923333	0.71422393	-0.24996185	-0.075638178	0.76046541	0.28402003
192	0.764	0.14352822	-0.058780457	0.013749081	-0.59182792	0.061222995	0.10606687	-0.0019825214	-0.027480684	-0.034902666	-0.6407395	0.20139774	0.14090495	0.012518296	-0.0089620596	0.061566072	-0.58887804	0.19406099	0.057272101	-0.076581399	-0.061900972	0.0058918484	-0.685835	0.24324846	0.079624475	0.051557579	0.37994165	-0.090954122	-0.23361568	0.35729869	0.2177838	0.048337387	0.38419912	0.034009954	-0.2183635	0.32944257	0.089363698	-0.13950571	0.75840621	-0.14367996	-0.19137148	0.74322017	0.22792944	-0.07541541	0.84761922	-0.074955585	-0.085313671	0.82925826	0.16701175	-0.24842375	0.8885505	0.041721915	-0.12995031	1.2842837	-0.1322927	-0.13929601	1.3052327	0.20011045	-0.20001504	1.3444738	0.033388468	-0.28256901	0.95188011	-0.17169201	-0.26365836	0.95638904	0.28914908	-0.20076578	0.71402489	-0.24977848	-0.072793387	0.75805326	0.28466894
193	0.768	0.14354753	-0.05882817	0.013747849	-0.58678563	0.063272159	0.10726292	-0.0016602708	-0.027635807	-0.03493708	-0.6301072	0.20590426	0.14254037	0.012735932	-0.008999906	0.061535947	-0.57849684	0.19740613	0.058659307	-0.076639029	-0.061788955	0.0059028157	-0.67395479	0.2494869	0.081765981	0.0552813	0.37912256	-0.090836446	-0.22449264	0.35674053	0.21836301	0.052269608	0.38292855	0.033677022	-0.20701376	0.32875571	0.089480729	-0.13351751	0.75808809	-0.14421432	-0.18479834	0.7427751	0.22727572	-0.069213297	0.84768035	-0.075459085	-0.079504426	0.82923112	0.16644933	-0.24175345	0.88686204	0.036716579	-0.12333059	1.2844444	-0.13238848	-0.13219331	1.3052884	0.20002336	-0.19336054	1.3447185	0.033261992	-0.27528934	0.95165285	-0.17193354	-0.2575768	0.95703142	0.28866579	-0.19221917	0.71396175	-0.24951889	-0.069994672	0.75575428	0.28532906
194	0.772	0.14356693	-0.058871345	0.013726534	-0.58106765	0.065376677	0.10869941	-0.0013436198	-0.027794418	-0.034991954	-0.61927399	0.2102127	0.14401472	0.012937576	-0.0090550807	0.061494362	-0.56797114	0.20082129	0.06004605	-0.076661725	-0.061688901	0.0058271912	-0.66160274	0.2554661	0.083634116	0.058597838	0.37847738	-0.09066272	-0.2151906	0.35634295	0.21886641	0.055739434	0.38188841	0.033372449	-0.19565093	0.32827655	0.089448214	-0.1274441	0.75802944	-0.14471485	-0.1783206	0.7424736	0.2266329	-0.063082552	0.84778187	-0.075879369	-0.073787281	0.82938389	0.16599904	-0.2382303	0.88651928	0.03312682	-0.11671063	1.2847142	-0.13249265	-0.12522882	1.3054563	0.19993256	-0.18673192	1.3450984	0.033118817	-0.26805512	0.95154305	-0.17221053	-0.25144525	0.95774252	0.28829556	-0.18360074	0.71403049	-0.24919465	-0.067188836	0.75358319	0.28599042
195	0.776	0.14357088	-0.058913523	0.013707875	-0.57448761	0.067587592	0.11035272	-0.0010915083	-0.02793739	-0.035058004	-0.60821538	0.21433736	0.14532746	0.013097986	-0.0091128599	0.061452712	-0.55714179	0.20424843	0.061444354	-0.076678568	-0.061607631	0.0057067645	-0.64894558	0.26121082	0.085370966	0.061761726	0.3780649	-0.090810841	-0.20527613	0.35605316	0.2192151	0.058824241	0.38109152	0.033105138	-0.18438799	0.32801348	0.089267725	-0.12130061	0.75829109	-0.14515449	-0.17202483	0.74228431	0.22604558	-0.056999431	0.84793928	-0.076196326	-0.068151099	0.82969977	0.16566158	-0.23558495	0.88714179	0.030861114	-0.11008426	1.2850887	-0.13259658	-0.11841811	1.3057354	0.19983912	-0.18014174	1.3455925	0.032965701	-0.26086601	0.95155381	-0.17253134	-0.24528447	0.95853727	0.28802961	-0.17490693	0.71422821	-0.24882288	-0.064308051	0.75156335	0.2866446
